<?xml version="1.0" standalone="no"?><!DOCTYPE svg PUBLIC "-//W3C//DTD SVG 1.1//EN" "http://www.w3.org/Graphics/SVG/1.1/DTD/svg11.dtd"><svg t="1656772505700" class="icon" viewBox="0 0 1024 1024" version="1.1" xmlns="http://www.w3.org/2000/svg" p-id="2274" xmlns:xlink="http://www.w3.org/1999/xlink" width="200" height="200"><defs><style type="text/css">@font-face { font-family: feedback-iconfont; src: url("//at.alicdn.com/t/font_1031158_u69w8yhxdu.woff2?t=1630033759944") format("woff2"), url("//at.alicdn.com/t/font_1031158_u69w8yhxdu.woff?t=1630033759944") format("woff"), url("//at.alicdn.com/t/font_1031158_u69w8yhxdu.ttf?t=1630033759944") format("truetype"); }
</style></defs><path d="M929.684211 705.805474v1.994105c0 28.186947-5.766737 57.667368-16.49179 81.704421a101.645474 101.645474 0 0 1-72.973474 59.014737c-8.784842 3.125895-16.491789 3.772632-27.055158 3.772631H212.884211c-19.186526 0-26.408421-0.485053-37.941895-5.658947a103.962947 103.962947 0 0 1-56.589474-46.241684l-3.125895-3.125895-4.096-9.162105a197.578105 197.578105 0 0 1-16.815158-80.303158v-2.209684a204.153263 204.153263 0 0 1 70.709895-153.6v-121.802106c0-144.815158 90.004211-275.186526 222.046316-326.332631C409.761684 56.697263 457.889684 24.144842 512 24.144842c51.846737 0 98.573474 28.941474 122.610526 73.350737C776.084211 142.821053 873.094737 276.48 873.094737 430.133895v135.006316a199.895579 199.895579 0 0 1 56.589474 140.665263z m-107.789474 1.994105v-1.994105c0-29.911579-12.773053-56.32-35.678316-74.105263l-20.911158-16.168422v-185.397894c0-113.717895-75.668211-210.620632-182.487579-235.196632l-31.744-7.275789-8.299789-31.474527a32.229053 32.229053 0 0 0-30.773895-24.252631c-13.797053 0-27.055158 11.210105-30.181053 25.653895l-6.629052 31.474526-30.881684 9.10821C343.902316 227.651368 272.815158 323.368421 272.815158 430.08v178.768842l-25.330526 15.845053c-28.133053 17.623579-45.271579 48.289684-45.379369 81.057684v1.994105c0 9.808842 1.509053 19.402105 4.311579 28.186948l1.347369 1.347368 3.072 7.114105h597.692631l1.293474-0.592842 5.928421-0.646737c3.772632-10.024421 6.144-23.066947 6.144-35.408842z m-610.789053 37.349053l7.599158 2.96421a39.343158 39.343158 0 0 0-7.545263-2.96421z" p-id="2275"></path><path d="M323.368421 831.541895h107.789474c0 32.013474 34.492632 61.547789 80.842105 61.547789s80.842105-29.534316 80.842105-61.547789h107.789474c0 95.501474-86.123789 169.337263-188.631579 169.337263S323.368421 927.043368 323.368421 831.595789z" p-id="2276"></path></svg>